<svg width="25" height="25" viewBox="0 0 25 25" fill="none" xmlns="http://www.w3.org/2000/svg">
<path d="M7.29165 19.7917C8.44224 19.7917 9.37498 18.8589 9.37498 17.7083C9.37498 16.5577 8.44224 15.625 7.29165 15.625C6.14105 15.625 5.20831 16.5577 5.20831 17.7083C5.20831 18.8589 6.14105 19.7917 7.29165 19.7917Z" stroke="#DDD" stroke-width="2" stroke-linecap="round" stroke-linejoin="round"/>
<path d="M17.7083 19.7917C18.8589 19.7917 19.7917 18.8589 19.7917 17.7083C19.7917 16.5577 18.8589 15.625 17.7083 15.625C16.5577 15.625 15.625 16.5577 15.625 17.7083C15.625 18.8589 16.5577 19.7917 17.7083 19.7917Z" stroke="#DDD" stroke-width="2" stroke-linecap="round" stroke-linejoin="round"/>
<path d="M12.5 11.4583V6.25M5.20833 17.7083H3.125V11.4583L5.20833 6.25H14.5833L18.75 11.4583H19.7917C20.3442 11.4583 20.8741 11.6778 21.2648 12.0685C21.6555 12.4592 21.875 12.9891 21.875 13.5417V17.7083H19.7917H5.20833ZM15.625 17.7083H9.375H15.625ZM3.125 11.4583H18.75H3.125Z" stroke="#DDD" stroke-width="2" stroke-linecap="round" stroke-linejoin="round"/>
</svg>
