<?xml version="1.0" encoding="UTF-8" standalone="no"?><!DOCTYPE svg PUBLIC "-//W3C//DTD SVG 1.1//EN" "http://www.w3.org/Graphics/SVG/1.1/DTD/svg11.dtd"><svg width="100%" height="100%" viewBox="0 0 100 100" version="1.1" xmlns="http://www.w3.org/2000/svg" xmlns:xlink="http://www.w3.org/1999/xlink" xml:space="preserve" xmlns:serif="http://www.serif.com/" style="fill-rule:evenodd;clip-rule:evenodd;stroke-linejoin:round;stroke-miterlimit:2;"><path d="M85.375,31.333c-0.024,-0.11 -0.024,-0.223 0,-0.333c-0.02,-0.096 -0.02,-0.195 0,-0.292l0,-0.375l-0.25,-0.625c-0.102,-0.17 -0.228,-0.325 -0.375,-0.458l-0.375,-0.333l-0.208,-0l-16.417,-10.375l-15.5,-9.584c-0.359,-0.284 -0.769,-0.496 -1.208,-0.625l-0.334,0c-0.372,-0.062 -0.752,-0.062 -1.125,0l-0.416,0c-0.484,0.107 -0.948,0.29 -1.375,0.542l-31.125,19.375l-0.375,0.292l-0.375,0.333l-0.417,0.292l-0.208,0.25l-0.25,0.625l-0,0.625c-0.041,0.276 -0.041,0.557 -0,0.833l-0,36.375c-0.003,1.438 0.739,2.78 1.958,3.542l31.25,19.333l0.625,0.25l0.333,0c0.705,0.224 1.462,0.224 2.167,0l0.333,0l0.625,-0.25l31,-19.042c1.22,-0.762 1.962,-2.103 1.959,-3.541l-0,-36.375c-0,-0 0.083,-0.292 0.083,-0.459Zm-35.375,-13.958l7.417,4.583l-23.292,14.417l-7.458,-4.583l23.333,-14.417Zm-4.167,62.5l-22.916,-14l-0,-26.625l22.916,14.167l0,26.458Zm4.167,-33.792l-7.958,-4.791l23.291,-14.459l8,4.959l-23.333,14.291Zm27.083,19.667l-22.916,14.25l-0,-26.583l22.916,-14.167l0,26.5Z" style="fill:#fff;fill-rule:nonzero;"/></svg>