<?xml version="1.0" encoding="UTF-8" standalone="no"?><!DOCTYPE svg PUBLIC "-//W3C//DTD SVG 1.1//EN" "http://www.w3.org/Graphics/SVG/1.1/DTD/svg11.dtd"><svg width="100%" height="100%" viewBox="0 0 4500 4500" version="1.1" xmlns="http://www.w3.org/2000/svg" xmlns:xlink="http://www.w3.org/1999/xlink" xml:space="preserve" xmlns:serif="http://www.serif.com/" style="fill-rule:evenodd;clip-rule:evenodd;stroke-linejoin:round;stroke-miterlimit:2;"><rect id="Page-2" serif:id="Page 2" x="0" y="0" width="4500" height="4500" style="fill:none;"/><g id="Calque-1" serif:id="Calque 1"><g><path d="M2239.56,1076.69c525.194,0 974.73,343.334 1160.2,829.926c26.305,69.008 89.311,114.293 159.489,114.293l186.17,0c117.399,0 200.604,-122.105 163.262,-240.173c-233.99,-739.897 -892.82,-1273 -1669.12,-1273c-776.305,-0 -1435.13,533.103 -1669.12,1273c-37.341,118.068 45.857,240.173 163.263,240.173l186.17,0c70.177,0 133.19,-45.278 159.488,-114.293c185.467,-486.592 635.004,-829.926 1160.2,-829.926" style="fill:#f9c31c;fill-rule:nonzero;"/><path d="M3141.85,2751.46c-124.675,-0 -234.227,-67.741 -297.087,-170.017c-39.298,-63.932 -107.038,-102.359 -179.59,-102.359l-794.882,-0c-72.545,-0 -140.286,38.427 -179.584,102.359c-62.852,102.276 -172.411,170.017 -297.086,170.017c-124.682,-0 -234.234,-67.741 -297.087,-170.017c-39.305,-63.932 -107.039,-102.359 -179.584,-102.359l-120.643,-0c-151.475,-0 -257.288,158.765 -203.626,307.266c254.649,704.805 904.399,1205.91 1665.89,1205.91c761.474,0 1411.24,-501.102 1665.89,-1205.91c53.655,-148.501 -52.165,-307.266 -203.625,-307.266l-102.311,-0c-72.545,-0 -140.279,38.427 -179.583,102.359c-62.853,102.276 -172.405,170.017 -297.087,170.017" style="fill:#f9c31c;fill-rule:nonzero;"/></g></g></svg>