<svg width="38" height="38" viewBox="0 0 38 38" fill="none" xmlns="http://www.w3.org/2000/svg">
<path d="M28.5 9.5V9.51417" stroke="#82838D" stroke-width="2" stroke-linecap="round" stroke-linejoin="round"/>
<path d="M28.5 20.5833L22.9583 12.6667C22.4248 11.7025 22.1521 10.6158 22.1672 9.51392C22.1823 8.41208 22.4846 7.33324 23.0442 6.38399C23.6039 5.43475 24.4015 4.64795 25.3583 4.10134C26.3151 3.55472 27.398 3.26721 28.5 3.26721C29.6019 3.26721 30.6848 3.55472 31.6416 4.10134C32.5984 4.64795 33.396 5.43475 33.9557 6.38399C34.5153 7.33324 34.8176 8.41208 34.8327 9.51392C34.8478 10.6158 34.5751 11.7025 34.0416 12.6667L28.5 20.5833Z" stroke="#82838D" stroke-width="2" stroke-linecap="round" stroke-linejoin="round"/>
<path d="M16.625 7.52084L14.25 6.33334L4.75 11.0833V31.6667L14.25 26.9167L23.75 31.6667L33.25 26.9167V23.75" stroke="#82838D" stroke-width="2" stroke-linecap="round" stroke-linejoin="round"/>
<path d="M14.25 6.33334V26.9167" stroke="#82838D" stroke-width="2" stroke-linecap="round" stroke-linejoin="round"/>
<path d="M23.75 23.75V31.6667" stroke="#82838D" stroke-width="2" stroke-linecap="round" stroke-linejoin="round"/>
</svg>
